<svg xmlns="http://www.w3.org/2000/svg" xmlns:xlink="http://www.w3.org/1999/xlink" version="1.1" x="0px" y="0px" width="100px" height="100px" viewBox="0 0 100 100" enable-background="new 0 0 100 100" xml:space="preserve">
<g id="Layer_1" display="none">
	<path display="inline" d="M66.015,81.127L53.93,63H16V18h68v45H69.64L66.015,81.127z M20,59h36.07l7.915,11.873L66.36,59H80V22H20   V59z"/>
</g>
<g id="Layer_2">
	<path fill="#BBB" d="M72,18H28c-6.627,0-12,5.373-12,12v21c0,6.627,5.373,12,12,12h26.025l10.843,16.407L68.357,63H72c6.627,0,12-5.373,12-12   V30C84,23.373,78.627,18,72,18z"/>
</g>
</svg>
